<svg width="100" height="20" viewBox="0 0 100 20" fill="none" xmlns="http://www.w3.org/2000/svg">
<path d="M5.11914 3.17578C5.97852 3.2474 6.73047 3.29036 7.375 3.30469C8.03385 3.31901 8.59245 3.32617 9.05078 3.32617C9.58073 3.32617 10.0391 3.31185 10.4258 3.2832C10.8268 3.24023 11.3496 3.18294 11.9941 3.11133C12.5384 3.03971 13.2402 2.94661 14.0996 2.83203C14.959 2.70312 16.0046 2.53841 17.2363 2.33789C17.0788 2.58138 16.9427 2.83919 16.8281 3.11133C16.7279 3.36914 16.6419 3.60547 16.5703 3.82031C16.4987 4.07812 16.4342 4.32878 16.377 4.57227C16.334 4.8444 16.2839 5.18099 16.2266 5.58203C16.1693 5.92578 16.0977 6.36263 16.0117 6.89258C15.9401 7.4082 15.847 8.02409 15.7324 8.74023C15.3027 7.62305 14.8659 6.76367 14.4219 6.16211C13.9922 5.56055 13.5911 5.11654 13.2188 4.83008C12.7891 4.50065 12.3809 4.31445 11.9941 4.27148C11.4355 4.27148 10.9772 4.37891 10.6191 4.59375C10.2611 4.80859 9.96745 5.08789 9.73828 5.43164C9.52344 5.76107 9.35872 6.1263 9.24414 6.52734C9.12956 6.91406 9.05078 7.29362 9.00781 7.66602C8.96484 8.02409 8.9362 8.34635 8.92188 8.63281C8.90755 8.90495 8.89323 9.09115 8.87891 9.19141C9.38021 9.16276 9.80273 9.12695 10.1465 9.08398C10.4902 9.04102 10.7624 8.99805 10.9629 8.95508C11.2064 8.89779 11.3997 8.84049 11.543 8.7832C11.7578 8.66862 11.9727 8.53255 12.1875 8.375C12.3737 8.23177 12.5671 8.0599 12.7676 7.85938C12.9824 7.65885 13.1686 7.41536 13.3262 7.12891C13.2402 7.64453 13.1615 8.07422 13.0898 8.41797C13.0326 8.76172 12.9824 9.03385 12.9395 9.23438C12.8822 9.47786 12.8464 9.66406 12.832 9.79297C12.8034 9.92188 12.7676 10.1009 12.7246 10.3301C12.6816 10.5306 12.6315 10.7884 12.5742 11.1035C12.5169 11.4186 12.4525 11.8125 12.3809 12.2852C12.209 11.9844 12.0299 11.7409 11.8438 11.5547C11.6576 11.3542 11.4857 11.1966 11.3281 11.082C11.1419 10.9531 10.9629 10.8529 10.791 10.7812C10.6048 10.724 10.4043 10.6667 10.1895 10.6094C10.0033 10.5664 9.78125 10.5234 9.52344 10.4805C9.27995 10.4232 9.01497 10.373 8.72852 10.3301C8.75716 11.1035 8.80013 11.7695 8.85742 12.3281C8.91471 12.8724 8.96484 13.3307 9.00781 13.7031C9.0651 14.1328 9.1224 14.4909 9.17969 14.7773C9.2513 15.0638 9.36589 15.3717 9.52344 15.7012C9.65234 15.9876 9.83138 16.3171 10.0605 16.6895C10.304 17.0475 10.612 17.4342 10.9844 17.8496C10.6979 17.778 10.3971 17.7279 10.082 17.6992C9.76693 17.6706 9.48763 17.6491 9.24414 17.6348C8.94336 17.6204 8.6569 17.6204 8.38477 17.6348C8.09831 17.6491 7.7832 17.6777 7.43945 17.7207C7.15299 17.7493 6.82357 17.7923 6.45117 17.8496C6.07878 17.9069 5.6849 17.9714 5.26953 18.043C5.51302 17.7995 5.71354 17.556 5.87109 17.3125C6.02865 17.069 6.14323 16.8542 6.21484 16.668C6.30078 16.4531 6.35807 16.2454 6.38672 16.0449C6.40104 15.873 6.4082 15.5007 6.4082 14.9277C6.4082 14.3405 6.40104 13.6602 6.38672 12.8867C6.3724 12.099 6.35091 11.2682 6.32227 10.3945C6.29362 9.52083 6.26497 8.70443 6.23633 7.94531C6.20768 7.17188 6.17188 6.51302 6.12891 5.96875C6.10026 5.42448 6.06445 5.09505 6.02148 4.98047C5.96419 4.83724 5.89974 4.67253 5.82812 4.48633C5.71354 4.18555 5.47721 3.7487 5.11914 3.17578ZM17.5371 9.29883C17.6087 9.21289 17.6517 9.05534 17.666 8.82617C17.6947 8.58268 17.752 8.31055 17.8379 8.00977C17.9382 7.70898 18.1029 7.39388 18.332 7.06445C18.5612 6.73503 18.9336 6.42708 19.4492 6.14062C19.9505 5.85417 20.4375 5.68229 20.9102 5.625C21.3828 5.56771 21.834 5.58919 22.2637 5.68945C22.6934 5.78971 23.0944 5.94727 23.4668 6.16211C23.8535 6.37695 24.2044 6.61328 24.5195 6.87109C24.7344 7.04297 24.9062 7.29362 25.0352 7.62305C25.1641 7.93815 25.2643 8.29622 25.3359 8.69727C25.4076 9.09831 25.4577 9.52083 25.4863 9.96484C25.5293 10.3945 25.5579 10.8171 25.5723 11.2324C25.5866 11.6335 25.5938 12.0059 25.5938 12.3496C25.6081 12.679 25.6367 12.9512 25.6797 13.166C25.737 13.4811 25.8372 13.7533 25.9805 13.9824C26.1237 14.1973 26.2812 14.3835 26.4531 14.541C26.625 14.6842 26.7969 14.7988 26.9688 14.8848C27.1406 14.9707 27.291 15.0352 27.4199 15.0781C27.5059 15.1211 27.5846 15.1497 27.6562 15.1641C27.7995 15.2214 27.8997 15.2214 27.957 15.1641C27.8711 15.3646 27.7923 15.5365 27.7207 15.6797C27.6491 15.8229 27.5918 15.9447 27.5488 16.0449C27.4915 16.1595 27.4414 16.2526 27.3984 16.3242C27.3555 16.4102 27.3053 16.4889 27.248 16.5605C27.2051 16.6322 27.1478 16.7109 27.0762 16.7969C27.0046 16.8828 26.9329 16.9759 26.8613 17.0762C26.6751 17.0046 26.4961 16.9186 26.3242 16.8184C26.1667 16.7181 26.0234 16.625 25.8945 16.5391C25.737 16.4388 25.5938 16.3385 25.4648 16.2383C25.3359 16.138 25.2142 16.0234 25.0996 15.8945C24.9993 15.7799 24.8919 15.6582 24.7773 15.5293C24.6771 15.4004 24.5911 15.2572 24.5195 15.0996C24.4336 15.2858 24.2259 15.5508 23.8965 15.8945C23.5814 16.2383 23.166 16.5534 22.6504 16.8398C22.1348 17.112 21.5332 17.3053 20.8457 17.4199C20.1725 17.5345 19.4277 17.4557 18.6113 17.1836C18.2533 17.069 17.9167 16.9043 17.6016 16.6895C17.2865 16.4603 17.0143 16.1882 16.7852 15.873C16.5703 15.5579 16.4128 15.1999 16.3125 14.7988C16.2266 14.3835 16.2337 13.9251 16.334 13.4238C16.4342 12.9225 16.6133 12.5 16.8711 12.1562C17.1289 11.8125 17.4368 11.5332 17.7949 11.3184C18.153 11.1035 18.554 10.9388 18.998 10.8242C19.4421 10.7096 19.9004 10.6309 20.373 10.5879C20.7454 10.5736 21.1178 10.5951 21.4902 10.6523C21.8053 10.7096 22.1348 10.8171 22.4785 10.9746C22.8223 11.1178 23.1159 11.3398 23.3594 11.6406C23.3451 10.8815 23.3164 10.2799 23.2734 9.83594C23.2448 9.3776 23.2161 9.02669 23.1875 8.7832C23.1302 8.49674 23.0801 8.29622 23.0371 8.18164C22.9655 8.08138 22.8867 7.9668 22.8008 7.83789C22.7292 7.70898 22.6361 7.5944 22.5215 7.49414C22.4069 7.37956 22.2637 7.28646 22.0918 7.21484C21.9199 7.14323 21.7194 7.11458 21.4902 7.12891C21.2467 7.14323 21.0534 7.20768 20.9102 7.32227C20.7669 7.43685 20.6523 7.57292 20.5664 7.73047C20.4948 7.8737 20.4518 8.03125 20.4375 8.20312C20.4232 8.375 20.4303 8.52539 20.459 8.6543C20.4876 8.74023 20.5306 8.83333 20.5879 8.93359C20.6452 9.01953 20.724 9.11263 20.8242 9.21289C20.9245 9.31315 21.0605 9.39909 21.2324 9.4707C20.903 9.51367 20.6094 9.54948 20.3516 9.57812C20.0938 9.59245 19.8717 9.61393 19.6855 9.64258C19.4707 9.67122 19.2845 9.69271 19.127 9.70703C18.9694 9.72135 18.7832 9.75 18.5684 9.79297C18.3822 9.82161 18.153 9.85742 17.8809 9.90039C17.6087 9.94336 17.2936 10.0007 16.9355 10.0723C17.0215 9.97201 17.1003 9.87891 17.1719 9.79297C17.2435 9.69271 17.3079 9.60677 17.3652 9.53516C17.4225 9.44922 17.4798 9.37044 17.5371 9.29883ZM20.7598 11.8555C20.502 11.8698 20.2441 11.9342 19.9863 12.0488C19.7285 12.1491 19.4993 12.2995 19.2988 12.5C19.0983 12.6862 18.9264 12.9082 18.7832 13.166C18.6543 13.4095 18.5898 13.6816 18.5898 13.9824C18.5898 14.2832 18.6615 14.5482 18.8047 14.7773C18.9622 14.9922 19.1628 15.1712 19.4062 15.3145C19.6641 15.4577 19.9362 15.5436 20.2227 15.5723C20.5234 15.6009 20.8171 15.5723 21.1035 15.4863C21.3757 15.3861 21.6335 15.2285 21.877 15.0137C22.1204 14.7845 22.3281 14.541 22.5 14.2832C22.6719 14.0111 22.7936 13.7461 22.8652 13.4883C22.9368 13.2161 22.944 12.9941 22.8867 12.8223C22.7721 12.4499 22.5143 12.1921 22.1133 12.0488C21.7122 11.8913 21.2611 11.8268 20.7598 11.8555ZM27.7422 2.91797C28.0716 3.00391 28.3724 3.06836 28.6445 3.11133C28.931 3.13997 29.1745 3.16146 29.375 3.17578C29.6185 3.1901 29.8405 3.19727 30.041 3.19727C30.2415 3.19727 30.4922 3.18294 30.793 3.1543C31.3229 3.11133 32.0749 3.00391 33.0488 2.83203C32.8913 2.94661 32.7409 3.0612 32.5977 3.17578C32.4688 3.27604 32.3542 3.3763 32.2539 3.47656L31.9316 3.79883C31.7454 4.05664 31.5592 4.49349 31.373 5.10938C31.2155 5.63932 31.0436 6.38411 30.8574 7.34375C30.6855 8.30339 30.528 9.57812 30.3848 11.168C31.0866 10.4805 31.7454 9.96484 32.3613 9.62109C32.9915 9.26302 33.543 9.00521 34.0156 8.84766C34.5742 8.67578 35.0827 8.58268 35.541 8.56836C36.1283 8.61133 36.6367 8.73307 37.0664 8.93359C37.5104 9.11979 37.8828 9.34896 38.1836 9.62109C38.4987 9.87891 38.7493 10.151 38.9355 10.4375C39.1361 10.7096 39.2865 10.9531 39.3867 11.168C39.444 11.3112 39.487 11.5762 39.5156 11.9629C39.5586 12.3353 39.5658 12.765 39.5371 13.252C39.5085 13.7389 39.4297 14.2546 39.3008 14.7988C39.1862 15.3288 38.9928 15.8229 38.7207 16.2812C38.4629 16.7253 38.1191 17.0977 37.6895 17.3984C37.2741 17.6992 36.7513 17.8639 36.1211 17.8926C35.3906 17.8926 34.6816 17.8066 33.9941 17.6348C33.4069 17.4915 32.7839 17.2409 32.125 16.8828C31.4805 16.5104 30.929 15.9805 30.4707 15.293C30.4707 15.4648 30.4707 15.6367 30.4707 15.8086C30.4707 15.9661 30.4779 16.1022 30.4922 16.2168C30.5065 16.3743 30.5208 16.5104 30.5352 16.625C30.5495 16.7539 30.5853 16.89 30.6426 17.0332C30.6855 17.1478 30.75 17.291 30.8359 17.4629C30.9362 17.6204 31.0651 17.778 31.2227 17.9355C31.0651 17.9212 30.9076 17.9141 30.75 17.9141C30.5924 17.8997 30.4349 17.8997 30.2773 17.9141C30.1055 17.9284 29.9336 17.9427 29.7617 17.957C29.5898 17.9714 29.4108 17.9928 29.2246 18.0215C29.0671 18.0501 28.8809 18.0859 28.666 18.1289C28.4512 18.1719 28.2292 18.222 28 18.2793C28.043 18.1504 28.0788 17.9642 28.1074 17.7207C28.1361 17.4629 28.1647 17.1836 28.1934 16.8828C28.2363 16.5677 28.265 16.2383 28.2793 15.8945C28.3079 15.5508 28.3366 15.207 28.3652 14.8633C28.4225 14.0755 28.4727 13.2161 28.5156 12.2852C28.5586 10.8385 28.5658 9.49219 28.5371 8.24609C28.5228 7.71615 28.4941 7.17904 28.4512 6.63477C28.4225 6.09049 28.3796 5.58203 28.3223 5.10938C28.265 4.6224 28.1862 4.19271 28.0859 3.82031C28 3.43359 27.8854 3.13281 27.7422 2.91797ZM30.5352 13.3809C30.7643 13.7962 31.0078 14.1543 31.2656 14.4551C31.5234 14.7415 31.7812 14.985 32.0391 15.1855C32.2969 15.3861 32.5475 15.5436 32.791 15.6582C33.0488 15.7728 33.2923 15.8587 33.5215 15.916C34.0514 16.0592 34.5742 16.0736 35.0898 15.959C35.6055 15.8158 36.0065 15.5293 36.293 15.0996C36.5794 14.6699 36.8014 14.1829 36.959 13.6387C37.0306 13.3809 37.0736 13.0514 37.0879 12.6504C37.1165 12.2493 37.0736 11.8626 36.959 11.4902C36.8587 11.1035 36.6725 10.7669 36.4004 10.4805C36.1283 10.1797 35.7344 10.0007 35.2188 9.94336C34.8607 9.94336 34.4453 10.0436 33.9727 10.2441C33.5573 10.416 33.0632 10.7025 32.4902 11.1035C31.9173 11.4902 31.2656 12.0703 30.5352 12.8438V13.3809ZM39.4512 2.31641C39.9095 2.38802 40.3249 2.45247 40.6973 2.50977C41.0697 2.55273 41.3919 2.58854 41.6641 2.61719C41.9792 2.66016 42.2585 2.69596 42.502 2.72461C42.8027 2.76758 43.2539 2.71745 43.8555 2.57422C44.457 2.41667 45.1159 2.27344 45.832 2.14453C46.5625 2.0013 47.3073 1.92253 48.0664 1.9082C48.8255 1.87956 49.5202 2.01562 50.1504 2.31641C50.7806 2.61719 51.2962 2.91797 51.6973 3.21875C52.0983 3.51953 52.4134 3.8418 52.6426 4.18555C52.8861 4.51497 53.0579 4.86589 53.1582 5.23828C53.2585 5.61068 53.3158 6.01888 53.3301 6.46289C53.3158 7.12174 53.1582 7.75911 52.8574 8.375C52.7285 8.63281 52.5566 8.90495 52.3418 9.19141C52.1413 9.46354 51.8906 9.72852 51.5898 9.98633C51.2891 10.2441 50.931 10.4876 50.5156 10.7168C50.1146 10.946 49.6419 11.1465 49.0977 11.3184C49.6276 11.4759 50.0645 11.6621 50.4082 11.877C50.7663 12.0918 51.0527 12.2923 51.2676 12.4785C51.5254 12.7077 51.7188 12.9297 51.8477 13.1445C52.0052 13.4453 52.1126 13.7031 52.1699 13.918C52.2272 14.1328 52.263 14.3405 52.2773 14.541C52.306 14.7272 52.3418 14.9206 52.3848 15.1211C52.4277 15.3216 52.5208 15.5508 52.6641 15.8086C52.7786 16.0091 52.9147 16.2168 53.0723 16.4316C53.2155 16.6178 53.3802 16.8184 53.5664 17.0332C53.7669 17.248 54.0104 17.4557 54.2969 17.6562C53.8958 17.6706 53.5234 17.6777 53.1797 17.6777C52.8503 17.6777 52.5638 17.6777 52.3203 17.6777C52.0339 17.6777 51.7617 17.6706 51.5039 17.6562C51.2461 17.6419 50.9238 17.6348 50.5371 17.6348C50.2077 17.6348 49.7852 17.6348 49.2695 17.6348C48.7682 17.6348 48.1595 17.6419 47.4434 17.6562C47.7585 17.4128 48.0163 17.1693 48.2168 16.9258C48.4173 16.6823 48.5749 16.4603 48.6895 16.2598C48.8184 16.0306 48.9115 15.8086 48.9688 15.5938C49.0404 15.207 49.0475 14.806 48.9902 14.3906C48.9473 14.0326 48.8327 13.6387 48.6465 13.209C48.4603 12.765 48.1595 12.321 47.7441 11.877C47.3288 11.9486 46.9779 12.0059 46.6914 12.0488C46.4193 12.0775 46.1829 12.1061 45.9824 12.1348C45.7533 12.1634 45.5671 12.1849 45.4238 12.1992C45.2949 12.2135 45.1517 12.2279 44.9941 12.2422C44.8652 12.2565 44.722 12.278 44.5645 12.3066C44.4212 12.321 44.2852 12.3424 44.1562 12.3711C44.1276 12.987 44.1276 13.5241 44.1562 13.9824C44.1849 14.4264 44.2207 14.7988 44.2637 15.0996C44.321 15.4577 44.3854 15.7656 44.457 16.0234C44.5286 16.2812 44.6289 16.5319 44.7578 16.7754C44.8581 16.9759 44.987 17.1908 45.1445 17.4199C45.3021 17.6348 45.4811 17.8138 45.6816 17.957C45.3092 17.957 44.9512 17.957 44.6074 17.957C44.278 17.957 43.9772 17.9499 43.7051 17.9355C43.39 17.9355 43.0892 17.9284 42.8027 17.9141C42.5163 17.8997 42.194 17.8926 41.8359 17.8926C41.5352 17.8926 41.1771 17.8926 40.7617 17.8926C40.3607 17.8926 39.9238 17.8997 39.4512 17.9141C39.8236 17.5273 40.1172 17.1979 40.332 16.9258C40.5469 16.6536 40.7116 16.4245 40.8262 16.2383C40.9551 16.0378 41.0339 15.8659 41.0625 15.7227C41.0911 15.4935 41.1126 15.0853 41.127 14.498C41.1556 13.8965 41.1771 13.209 41.1914 12.4355C41.2057 11.6621 41.2129 10.8529 41.2129 10.0078C41.2129 9.16276 41.2057 8.375 41.1914 7.64453C41.1771 6.89974 41.1628 6.26237 41.1484 5.73242C41.1341 5.20247 41.1198 4.86589 41.1055 4.72266C41.0625 4.46484 40.9694 4.20703 40.8262 3.94922C40.7116 3.72005 40.5469 3.46224 40.332 3.17578C40.1172 2.88932 39.8236 2.60286 39.4512 2.31641ZM47.5723 9.87891C47.7155 9.79297 47.8372 9.70703 47.9375 9.62109C48.0378 9.53516 48.1237 9.39909 48.1953 9.21289C48.2669 9.01237 48.3242 8.73307 48.3672 8.375C48.4245 8.01693 48.4889 7.52995 48.5605 6.91406C48.6178 6.29818 48.5749 5.78971 48.4316 5.38867C48.3027 4.98763 48.1237 4.67253 47.8945 4.44336C47.6797 4.19987 47.4362 4.03516 47.1641 3.94922C46.9062 3.84896 46.6771 3.79883 46.4766 3.79883C46.0755 3.79883 45.6816 3.92057 45.2949 4.16406C44.9082 4.40755 44.6146 4.73698 44.4141 5.15234C44.3424 5.33854 44.278 5.64648 44.2207 6.07617C44.1777 6.44857 44.1491 6.96419 44.1348 7.62305C44.1204 8.2819 44.1419 9.14844 44.1992 10.2227C44.7435 10.3086 45.2233 10.3444 45.6387 10.3301C46.054 10.3014 46.4049 10.2513 46.6914 10.1797C47.0352 10.1081 47.3288 10.0078 47.5723 9.87891ZM59.7324 8.375C60.1048 8.375 60.4915 8.44661 60.8926 8.58984C61.2936 8.71875 61.6803 8.89062 62.0527 9.10547C62.4251 9.30599 62.7617 9.52799 63.0625 9.77148C63.3776 10.0007 63.6354 10.2227 63.8359 10.4375C64.194 10.8242 64.4375 11.347 64.5664 12.0059C64.7096 12.6504 64.7383 13.3164 64.6523 14.0039C64.5664 14.6771 64.3659 15.3145 64.0508 15.916C63.7357 16.5176 63.2988 16.9616 62.7402 17.248C62.3392 17.4486 61.9453 17.6061 61.5586 17.7207C61.1719 17.8353 60.7995 17.9212 60.4414 17.9785C60.0833 18.0358 59.7467 18.0645 59.4316 18.0645C59.1165 18.0645 58.8444 18.0573 58.6152 18.043C58.1855 18.0143 57.7344 17.8639 57.2617 17.5918C56.8034 17.3197 56.3665 16.9831 55.9512 16.582C55.5501 16.181 55.2064 15.7441 54.9199 15.2715C54.6335 14.7845 54.4616 14.3262 54.4043 13.8965C54.3184 13.3092 54.304 12.6934 54.3613 12.0488C54.4186 11.4043 54.6263 10.8099 54.9844 10.2656C55.3568 9.72135 55.9154 9.27018 56.6602 8.91211C57.4193 8.55404 58.4434 8.375 59.7324 8.375ZM59.0234 16.7109C59.181 16.7396 59.3958 16.7038 59.668 16.6035C59.9401 16.4889 60.2051 16.3099 60.4629 16.0664C60.735 15.8229 60.9714 15.515 61.1719 15.1426C61.3867 14.7559 61.5156 14.2904 61.5586 13.7461C61.6016 13.2161 61.6016 12.7292 61.5586 12.2852C61.5299 11.8411 61.4655 11.4544 61.3652 11.125C61.265 10.7812 61.1504 10.502 61.0215 10.2871C60.8926 10.0723 60.7565 9.92188 60.6133 9.83594C60.3698 9.70703 60.0762 9.60677 59.7324 9.53516C59.3887 9.44922 59.0951 9.46354 58.8516 9.57812C58.737 9.63542 58.5938 9.75716 58.4219 9.94336C58.25 10.1296 58.0781 10.3659 57.9062 10.6523C57.7344 10.9245 57.5768 11.2396 57.4336 11.5977C57.3047 11.9557 57.2116 12.3281 57.1543 12.7148C57.097 13.1016 57.0827 13.5169 57.1113 13.9609C57.1543 14.4049 57.2474 14.8275 57.3906 15.2285C57.5339 15.6152 57.7344 15.9518 57.9922 16.2383C58.2643 16.5104 58.6081 16.668 59.0234 16.7109ZM71.4414 8.375C71.8138 8.375 72.2005 8.44661 72.6016 8.58984C73.0026 8.71875 73.3893 8.89062 73.7617 9.10547C74.1341 9.30599 74.4707 9.52799 74.7715 9.77148C75.0866 10.0007 75.3444 10.2227 75.5449 10.4375C75.903 10.8242 76.1465 11.347 76.2754 12.0059C76.4186 12.6504 76.4473 13.3164 76.3613 14.0039C76.2754 14.6771 76.0749 15.3145 75.7598 15.916C75.4447 16.5176 75.0078 16.9616 74.4492 17.248C74.0482 17.4486 73.6543 17.6061 73.2676 17.7207C72.8809 17.8353 72.5085 17.9212 72.1504 17.9785C71.7923 18.0358 71.4557 18.0645 71.1406 18.0645C70.8255 18.0645 70.5534 18.0573 70.3242 18.043C69.8945 18.0143 69.4434 17.8639 68.9707 17.5918C68.5124 17.3197 68.0755 16.9831 67.6602 16.582C67.2591 16.181 66.9154 15.7441 66.6289 15.2715C66.3424 14.7845 66.1706 14.3262 66.1133 13.8965C66.0273 13.3092 66.013 12.6934 66.0703 12.0488C66.1276 11.4043 66.3353 10.8099 66.6934 10.2656C67.0658 9.72135 67.6243 9.27018 68.3691 8.91211C69.1283 8.55404 70.1523 8.375 71.4414 8.375ZM70.7324 16.7109C70.89 16.7396 71.1048 16.7038 71.377 16.6035C71.6491 16.4889 71.9141 16.3099 72.1719 16.0664C72.444 15.8229 72.6803 15.515 72.8809 15.1426C73.0957 14.7559 73.2246 14.2904 73.2676 13.7461C73.3105 13.2161 73.3105 12.7292 73.2676 12.2852C73.2389 11.8411 73.1745 11.4544 73.0742 11.125C72.974 10.7812 72.8594 10.502 72.7305 10.2871C72.6016 10.0723 72.4655 9.92188 72.3223 9.83594C72.0788 9.70703 71.7852 9.60677 71.4414 9.53516C71.0977 9.44922 70.804 9.46354 70.5605 9.57812C70.446 9.63542 70.3027 9.75716 70.1309 9.94336C69.959 10.1296 69.7871 10.3659 69.6152 10.6523C69.4434 10.9245 69.2858 11.2396 69.1426 11.5977C69.0137 11.9557 68.9206 12.3281 68.8633 12.7148C68.806 13.1016 68.7917 13.5169 68.8203 13.9609C68.8633 14.4049 68.9564 14.8275 69.0996 15.2285C69.2428 15.6152 69.4434 15.9518 69.7012 16.2383C69.9733 16.5104 70.3171 16.668 70.7324 16.7109ZM77.8867 18.6016C78.0299 18.3867 78.1445 18.1862 78.2305 18C78.3164 17.8138 78.388 17.6562 78.4453 17.5273C78.5026 17.3698 78.5456 17.2266 78.5742 17.0977C78.5885 17.0117 78.5957 16.7611 78.5957 16.3457C78.5957 15.9303 78.5814 15.4076 78.5527 14.7773C78.5384 14.1471 78.5169 13.4382 78.4883 12.6504C78.474 11.8626 78.4453 11.0605 78.4023 10.2441C78.3737 9.42773 78.3379 8.63281 78.2949 7.85938C78.2663 7.08594 78.2376 6.39128 78.209 5.77539C78.1803 5.14518 78.1517 4.62956 78.123 4.22852C78.0944 3.82747 78.0729 3.59831 78.0586 3.54102C78.0299 3.45508 77.9798 3.36914 77.9082 3.2832C77.765 3.11133 77.5215 2.94661 77.1777 2.78906C77.9082 2.60286 78.4668 2.45247 78.8535 2.33789C79.0827 2.2806 79.2832 2.22331 79.4551 2.16602C79.6126 2.10872 79.7702 2.05143 79.9277 1.99414C80.0566 1.93685 80.1999 1.8724 80.3574 1.80078C80.515 1.71484 80.6582 1.62174 80.7871 1.52148C80.7155 1.93685 80.6582 2.33789 80.6152 2.72461C80.5723 3.11133 80.5365 3.4694 80.5078 3.79883C80.4792 4.17122 80.4648 4.5293 80.4648 4.87305C80.3932 5.57487 80.3503 6.34115 80.3359 7.17188C80.3359 7.98828 80.3431 8.81901 80.3574 9.66406C80.3717 10.5091 80.4004 11.3327 80.4434 12.1348C80.4863 12.9368 80.5293 13.6673 80.5723 14.3262C80.6296 14.9707 80.6797 15.5221 80.7227 15.9805C80.7799 16.4245 80.8229 16.7109 80.8516 16.8398C80.9089 17.0547 80.9661 17.2624 81.0234 17.4629C81.0807 17.6348 81.1452 17.8138 81.2168 18C81.2884 18.2005 81.3743 18.3581 81.4746 18.4727H79.3906C79.2044 18.4727 79.0254 18.4798 78.8535 18.4941C78.696 18.5085 78.5312 18.5228 78.3594 18.5371C78.1875 18.5514 78.0299 18.5729 77.8867 18.6016ZM82.0332 3.00391C82.6204 3.07552 83.2148 3.12565 83.8164 3.1543C84.4323 3.18294 84.9909 3.19727 85.4922 3.19727C86.0794 3.19727 86.6523 3.18294 87.2109 3.1543C87.7839 3.13997 88.3854 3.11133 89.0156 3.06836C89.5599 3.03971 90.1758 3.00391 90.8633 2.96094C91.5508 2.91797 92.2669 2.875 93.0117 2.83203L93.1406 4.70117C93.1406 4.83008 93.1478 4.99479 93.1621 5.19531C93.1621 5.36719 93.1621 5.58203 93.1621 5.83984C93.1764 6.09766 93.1908 6.39844 93.2051 6.74219C92.6895 7.1862 92.224 7.60872 91.8086 8.00977C91.4076 8.39648 91.0638 8.74023 90.7773 9.04102C90.4336 9.39909 90.1328 9.72852 89.875 10.0293C89.5456 10.416 89.1947 10.8887 88.8223 11.4473C88.4499 11.9915 88.099 12.5286 87.7695 13.0586C87.4544 13.5742 87.1966 14.0397 86.9961 14.4551C86.7956 14.8561 86.7096 15.1068 86.7383 15.207C86.7526 15.2786 86.8958 15.3216 87.168 15.3359C87.4401 15.3359 87.7695 15.3216 88.1562 15.293C88.5573 15.2643 88.9941 15.2214 89.4668 15.1641C89.9538 15.0924 90.4049 15.0208 90.8203 14.9492C91.25 14.8633 91.6296 14.7773 91.959 14.6914C92.2884 14.6055 92.5033 14.5195 92.6035 14.4336C92.7324 14.319 92.8757 14.1113 93.0332 13.8105C93.1764 13.5527 93.334 13.1947 93.5059 12.7363C93.6921 12.2637 93.8997 11.6335 94.1289 10.8457C94.1432 11.4329 94.1504 11.9342 94.1504 12.3496C94.1647 12.765 94.1862 13.1159 94.2148 13.4023C94.2292 13.7318 94.2507 14.0039 94.2793 14.2188C94.2936 14.4479 94.3223 14.7057 94.3652 14.9922C94.3939 15.2357 94.4297 15.5436 94.4727 15.916C94.5156 16.2884 94.5729 16.7038 94.6445 17.1621C93.6133 17.0332 92.7467 16.9473 92.0449 16.9043C91.3431 16.847 90.7773 16.8112 90.3477 16.7969C89.8464 16.7826 89.4453 16.7826 89.1445 16.7969C88.8294 16.8398 88.3997 16.9043 87.8555 16.9902C87.3971 17.0618 86.7884 17.1764 86.0293 17.334C85.2702 17.4772 84.3177 17.6706 83.1719 17.9141C83.1432 17.6419 83.1146 17.4056 83.0859 17.2051C83.0573 17.0046 83.0286 16.8255 83 16.668C82.9714 16.5104 82.9427 16.36 82.9141 16.2168C82.8854 16.0879 82.8496 15.9089 82.8066 15.6797C82.778 15.4792 82.7279 15.2357 82.6562 14.9492C82.599 14.6484 82.5273 14.276 82.4414 13.832C83.3008 12.944 84.0098 12.1992 84.5684 11.5977C85.1413 10.9818 85.5996 10.4805 85.9434 10.0938C86.3444 9.63542 86.6595 9.27018 86.8887 8.99805C87.1035 8.72591 87.3828 8.39648 87.7266 8.00977C88.013 7.68034 88.3854 7.27214 88.8438 6.78516C89.3021 6.28385 89.8535 5.68945 90.498 5.00195C89.8392 4.97331 89.2233 4.97331 88.6504 5.00195C88.0918 5.0306 87.6048 5.07357 87.1895 5.13086C86.7025 5.18815 86.2513 5.26693 85.8359 5.36719C85.4492 5.48177 85.0553 5.66797 84.6543 5.92578C84.3105 6.14062 83.9382 6.44141 83.5371 6.82812C83.1361 7.21484 82.7565 7.71615 82.3984 8.33203C82.3698 7.85938 82.3483 7.45833 82.334 7.12891C82.3197 6.79948 82.3053 6.52734 82.291 6.3125C82.2767 6.06901 82.2624 5.86849 82.248 5.71094C82.248 5.55339 82.2337 5.3457 82.2051 5.08789C82.1764 4.87305 82.1478 4.60091 82.1191 4.27148C82.0905 3.92773 82.0618 3.50521 82.0332 3.00391Z" fill="url(#paint0_linear_1_7)"/>
<defs>
<linearGradient id="paint0_linear_1_7" x1="50" y1="2" x2="50" y2="18" gradientUnits="userSpaceOnUse">
<stop stop-color="#DC0A0A"/>
<stop offset="0.776042" stop-color="#DC0A56" stop-opacity="0.85"/>
</linearGradient>
</defs>
</svg>
